{"accessors" : [{"bufferView" : 0, "byteOffset" : 0, "componentType" : 5123, "count" : 3906, "type" : "SCALAR", "max" : [3904], "min" : [0]}, {"bufferView" : 1, "byteOffset" : 0, "componentType" : 5126, "count" : 3905, "type" : "VEC3", "max" : [2.1596031188964844, 1.0472890138626099, 3.040400981903076], "min" : [-2.4213619232177734, -0.6581798791885376, -2.774049997329712], "name" : "POSITION"}, {"bufferView" : 1, "byteOffset" : 12, "componentType" : 5126, "count" : 3905, "type" : "VEC3", "max" : [0.9982421398162842, 0.9972958564758301, 1.0000044107437134], "min" : [-0.9982421398162842, -0.999370813369751, -0.99778151512146], "name" : "NORMAL"}, {"bufferView" : 0, "byteOffset" : 7812, "componentType" : 5123, "count" : 22209, "type" : "SCALAR", "max" : [22206], "min" : [0]}, {"bufferView" : 2, "byteOffset" : 0, "componentType" : 5126, "count" : 22207, "type" : "VEC3", "max" : [2.9389209747314453, 0.5654491186141968, 1.9050840139389038], "min" : [-2.823780059814453, -0.5885449051856995, -1.6364339590072632], "name" : "POSITION"}, {"bufferView" : 2, "byteOffset" : 12, "componentType" : 5126, "count" : 22207, "type" : "VEC3", "max" : [0.9998225569725037, 0.9999459981918335, 1.0000044107437134], "min" : [-0.9976719617843628, -0.9999914169311523, -0.9999204277992249], "name" : "NORMAL"}, {"bufferView" : 0, "byteOffset" : 52232, "componentType" : 5123, "count" : 1590, "type" : "SCALAR", "max" : [1589], "min" : [0]}, {"bufferView" : 3, "byteOffset" : 0, "componentType" : 5126, "count" : 1590, "type" : "VEC3", "max" : [1.1853059530258179, -0.5012935996055603, 3.039541006088257], "min" : [1.0351649522781372, -0.6656761169433594, 2.8783140182495117], "name" : "POSITION"}, {"bufferView" : 3, "byteOffset" : 12, "componentType" : 5126, "count" : 1590, "type" : "VEC3", "max" : [0.9986370205879211, 0.9988370537757874, 0.9999882578849792], "min" : [-0.999872088432312, -0.9968279600143433, -0.9930003881454468], "name" : "NORMAL"}, {"bufferView" : 0, "byteOffset" : 55412, "componentType" : 5123, "count" : 6783, "type" : "SCALAR", "max" : [6699], "min" : [0]}, {"bufferView" : 4, "byteOffset" : 0, "componentType" : 5126, "count" : 6700, "type" : "VEC3", "max" : [2.2527170181274414, 0.9495906233787537, 5.181274890899658], "min" : [-0.712088406085968, -1.281370997428894, -1.6364339590072632], "name" : "POSITION"}, {"bufferView" : 4, "byteOffset" : 12, "componentType" : 5126, "count" : 6700, "type" : "VEC3", "max" : [0.9974448084831238, 0.999825656414032, 1.0000044107437134], "min" : [-0.9993161559104919, -0.9990672469139099, -0.9996374845504761], "name" : "NORMAL"}, {"bufferView" : 0, "byteOffset" : 68980, "componentType" : 5123, "count" : 564, "type" : "SCALAR", "max" : [563], "min" : [0]}, {"bufferView" : 5, "byteOffset" : 0, "componentType" : 5126, "count" : 564, "type" : "VEC3", "max" : [0.44615408778190613, -0.08673263341188431, 1.940953016281128], "min" : [0.10597120225429535, -0.42950019240379333, 1.6012190580368042], "name" : "POSITION"}, {"bufferView" : 5, "byteOffset" : 12, "componentType" : 5126, "count" : 564, "type" : "VEC3", "max" : [0.9926499128341675, 0.9796305298805237, 0.9877440333366394], "min" : [-0.9659515619277954, -0.976723849773407, -0.9879018664360046], "name" : "NORMAL"}, {"bufferView" : 0, "byteOffset" : 70108, "componentType" : 5123, "count" : 2724, "type" : "SCALAR", "max" : [2723], "min" : [0]}, {"bufferView" : 6, "byteOffset" : 0, "componentType" : 5126, "count" : 2724, "type" : "VEC3", "max" : [0.45532891154289246, -0.1079426035284996, 1.9228639602661133], "min" : [0.10332509875297546, -0.4140600860118866, 1.5877360105514526], "name" : "POSITION"}, {"bufferView" : 6, "byteOffset" : 12, "componentType" : 5126, "count" : 2724, "type" : "VEC3", "max" : [0.9964302182197571, 0.9931874871253967, 0.9996950030326843], "min" : [-0.9964795112609863, -0.9926377534866333, -0.9994301795959473], "name" : "NORMAL"}, {"bufferView" : 0, "byteOffset" : 75556, "componentType" : 5123, "count" : 1668, "type" : "SCALAR", "max" : [1667], "min" : [0]}, {"bufferView" : 7, "byteOffset" : 0, "componentType" : 5126, "count" : 1668, "type" : "VEC3", "max" : [1.7852089405059814, 0.12151060253381729, 0.7421579957008362], "min" : [0.05921715125441551, -0.27461400628089905, -0.6949477195739746], "name" : "POSITION"}, {"bufferView" : 7, "byteOffset" : 12, "componentType" : 5126, "count" : 1668, "type" : "VEC3", "max" : [0.9966973662376404, 0.9937382340431213, 0.9927629828453064], "min" : [-0.9918764233589172, -0.9987369775772095, -0.9988893270492554], "name" : "NORMAL"}, {"bufferView" : 0, "byteOffset" : 78892, "componentType" : 5123, "count" : 1620, "type" : "SCALAR", "max" : [1619], "min" : [0]}, {"bufferView" : 8, "byteOffset" : 0, "componentType" : 5126, "count" : 1620, "type" : "VEC3", "max" : [0.32824280858039856, -0.004709839820861816, 0.721164882183075], "min" : [0.06835991144180298, -0.2715716063976288, 0.46281081438064575], "name" : "POSITION"}, {"bufferView" : 8, "byteOffset" : 12, "componentType" : 5126, "count" : 1620, "type" : "VEC3", "max" : [0.9975449442863464, 0.9979703426361084, 0.9975992441177368], "min" : [-0.9951849579811096, -0.9998173117637634, -0.9977629780769348], "name" : "NORMAL"}, {"bufferView" : 0, "byteOffset" : 82132, "componentType" : 5123, "count" : 2256, "type" : "SCALAR", "max" : [2255], "min" : [0]}, {"bufferView" : 9, "byteOffset" : 0, "componentType" : 5126, "count" : 2256, "type" : "VEC3", "max" : [1.3396810293197632, 0.5335745215415955, -2.7127060890197754], "min" : [0.5708215236663818, -0.17905570566654205, -3.2213261127471924], "name" : "POSITION"}, {"bufferView" : 9, "byteOffset" : 12, "componentType" : 5126, "count" : 2256, "type" : "VEC3", "max" : [0.9991738200187683, 0.998383641242981, 0.9893117547035217], "min" : [-0.991508960723877, -0.998383641242981, -0.9915331602096558], "name" : "NORMAL"}, {"bufferView" : 0, "byteOffset" : 86644, "componentType" : 5123, "count" : 564, "type" : "SCALAR", "max" : [563], "min" : [0]}, {"bufferView" : 10, "byteOffset" : 0, "componentType" : 5126, "count" : 564, "type" : "VEC3", "max" : [-0.2057037055492401, 0.8113275766372681, -3.507354974746704], "min" : [-0.7073538899421692, 0.3072079122066498, -4.0221028327941895], "name" : "POSITION"}, {"bufferView" : 10, "byteOffset" : 12, "componentType" : 5126, "count" : 564, "type" : "VEC3", "max" : [0.9965916872024536, 0.9962329864501953, 0.9662956595420837], "min" : [-0.996271014213562, -0.9986037015914917, -0.9987501502037048], "name" : "NORMAL"}, {"bufferView" : 0, "byteOffset" : 87772, "componentType" : 5123, "count" : 942, "type" : "SCALAR", "max" : [941], "min" : [0]}, {"bufferView" : 11, "byteOffset" : 0, "componentType" : 5126, "count" : 942, "type" : "VEC3", "max" : [2.130776882171631, 0.9317951798439026, -1.154539942741394], "min" : [-2.2564659118652344, -0.140905499458313, -2.6256539821624756], "name" : "POSITION"}, {"bufferView" : 11, "byteOffset" : 12, "componentType" : 5126, "count" : 942, "type" : "VEC3", "max" : [0.996749222278595, 0.9782706499099731, 0.9971885085105896], "min" : [-0.996749222278595, -0.992980420589447, -0.9805435538291931], "name" : "NORMAL"}, {"bufferView" : 0, "byteOffset" : 89656, "componentType" : 5123, "count" : 42, "type" : "SCALAR", "max" : [41], "min" : [0]}, {"bufferView" : 12, "byteOffset" : 0, "componentType" : 5126, "count" : 42, "type" : "VEC3", "max" : [2.2527170181274414, 0.2693229913711548, -0.5255017876625061], "min" : [1.0977239608764648, -0.5364550948143005, -1.6364339590072632], "name" : "POSITION"}, {"bufferView" : 12, "byteOffset" : 12, "componentType" : 5126, "count" : 42, "type" : "VEC3", "max" : [0.9853190779685974, 0.31418687105178833, 0.9717440009117126], "min" : [-0.9492990970611572, -0.7692362666130066, -0.8299888372421265], "name" : "NORMAL"}, {"bufferView" : 0, "byteOffset" : 89740, "componentType" : 5123, "count" : 2154, "type" : "SCALAR", "max" : [2153], "min" : [0]}, {"bufferView" : 13, "byteOffset" : 0, "componentType" : 5126, "count" : 2154, "type" : "VEC3", "max" : [0.4203501045703888, 0.46941450238227844, -4.446211814880371], "min" : [0.315286785364151, 0.37153148651123047, -4.542846202850342], "name" : "POSITION"}, {"bufferView" : 13, "byteOffset" : 12, "componentType" : 5126, "count" : 2154, "type" : "VEC3", "max" : [0.990101158618927, 0.9973716735839844, 0.9952729344367981], "min" : [-0.9982780814170837, -0.9957601428031921, -0.9969397187232971], "name" : "NORMAL"}, {"bufferView" : 0, "byteOffset" : 94048, "componentType" : 5123, "count" : 564, "type" : "SCALAR", "max" : [563], "min" : [0]}, {"bufferView" : 14, "byteOffset" : 0, "componentType" : 5126, "count" : 564, "type" : "VEC3", "max" : [1.4669450521469116, 0.8160616159439087, 5.109314918518066], "min" : [-0.5527452230453491, -1.2655600309371948, 3.144542932510376], "name" : "POSITION"}, {"bufferView" : 14, "byteOffset" : 12, "componentType" : 5126, "count" : 564, "type" : "VEC3", "max" : [0.9842497706413269, 0.9787981510162354, 0.9917049407958984], "min" : [-0.9701836109161377, -0.9671029448509216, -0.9923418760299683], "name" : "NORMAL"}], "asset" : {"generator" : "Aspose.3D 23.9.0", "version" : "2.0"}, "buffers" : [{"uri" : "data:application/octet-stream;base64,", "byteLength" : 1237300}], "bufferViews" : [{"buffer" : 0, "byteOffset" : 0, "byteLength" : 95176, "target" : 34963}, {"buffer" : 0, "byteOffset" : 95180, "byteLength" : 93744, "byteStride" : 24, "target" : 34962}, {"buffer" : 0, "byteOffset" : 188928, "byteLength" : 533016, "byteStride" : 24, "target" : 34962}, {"buffer" : 0, "byteOffset" : 721948, "byteLength" : 38160, "byteStride" : 24, "target" : 34962}, {"buffer" : 0, "byteOffset" : 760112, "byteLength" : 162792, "byteStride" : 24, "target" : 34962}, {"buffer" : 0, "byteOffset" : 922908, "byteLength" : 13536, "byteStride" : 24, "target" : 34962}, {"buffer" : 0, "byteOffset" : 936448, "byteLength" : 65376, "byteStride" : 24, "target" : 34962}, {"buffer" : 0, "byteOffset" : 1001828, "byteLength" : 40032, "byteStride" : 24, "target" : 34962}, {"buffer" : 0, "byteOffset" : 1041864, "byteLength" : 38880, "byteStride" : 24, "target" : 34962}, {"buffer" : 0, "byteOffset" : 1080748, "byteLength" : 54144, "byteStride" : 24, "target" : 34962}, {"buffer" : 0, "byteOffset" : 1134896, "byteLength" : 13536, "byteStride" : 24, "target" : 34962}, {"buffer" : 0, "byteOffset" : 1148436, "byteLength" : 22608, "byteStride" : 24, "target" : 34962}, {"buffer" : 0, "byteOffset" : 1171048, "byteLength" : 1008, "byteStride" : 24, "target" : 34962}, {"buffer" : 0, "byteOffset" : 1172060, "byteLength" : 51696, "byteStride" : 24, "target" : 34962}, {"buffer" : 0, "byteOffset" : 1223760, "byteLength" : 13536, "byteStride" : 24, "target" : 34962}], "materials" : [{"name" : "mat19", "pbrMetallicRoughness" : {"baseColorFactor" : [0.74, 0.33, 0.06, 1], "metallicFactor" : 0, "roughnessFactor" : 1}, "emissiveFactor" : [0, 0, 0], "alphaMode" : "OPAQUE", "doubleSided" : false}, {"name" : "mat15", "pbrMetallicRoughness" : {"baseColorFactor" : [0.63, 0.7, 0.72, 1], "metallicFactor" : 0, "roughnessFactor" : 1}, "emissiveFactor" : [0, 0, 0], "alphaMode" : "OPAQUE", "doubleSided" : false}, {"name" : "mat20", "pbrMetallicRoughness" : {"baseColorFactor" : [0.19, 0.09, 0.06, 1], "metallicFactor" : 0, "roughnessFactor" : 1}, "emissiveFactor" : [0, 0, 0], "alphaMode" : "OPAQUE", "doubleSided" : false}, {"name" : "mat13", "pbrMetallicRoughness" : {"baseColorFactor" : [1, 0.33, 0, 1], "metallicFactor" : 0, "roughnessFactor" : 1}, "emissiveFactor" : [0, 0, 0], "alphaMode" : "OPAQUE", "doubleSided" : false}, {"name" : "mat4", "pbrMetallicRoughness" : {"baseColorFactor" : [0, 0.52, 0.66, 1], "metallicFactor" : 0, "roughnessFactor" : 1}, "emissiveFactor" : [0, 0, 0], "alphaMode" : "OPAQUE", "doubleSided" : false}, {"name" : "mat9", "pbrMetallicRoughness" : {"baseColorFactor" : [0.27, 0.55, 0.07, 1], "metallicFactor" : 0, "roughnessFactor" : 1}, "emissiveFactor" : [0, 0, 0], "alphaMode" : "OPAQUE", "doubleSided" : false}, {"name" : "mat14", "pbrMetallicRoughness" : {"baseColorFactor" : [1, 0.09, 0.01, 1], "metallicFactor" : 0, "roughnessFactor" : 1}, "emissiveFactor" : [0, 0, 0], "alphaMode" : "OPAQUE", "doubleSided" : false}, {"name" : "mat8", "pbrMetallicRoughness" : {"baseColorFactor" : [0.91, 0.05, 0.03, 1], "metallicFactor" : 0, "roughnessFactor" : 1}, "emissiveFactor" : [0, 0, 0], "alphaMode" : "OPAQUE", "doubleSided" : false}, {"name" : "mat3", "pbrMetallicRoughness" : {"baseColorFactor" : [0.22, 0.74, 0.83, 1], "metallicFactor" : 0, "roughnessFactor" : 1}, "emissiveFactor" : [0, 0, 0], "alphaMode" : "OPAQUE", "doubleSided" : false}, {"name" : "mat5", "pbrMetallicRoughness" : {"baseColorFactor" : [0, 0.34, 0.79, 1], "metallicFactor" : 0, "roughnessFactor" : 1}, "emissiveFactor" : [0, 0, 0], "alphaMode" : "OPAQUE", "doubleSided" : false}, {"name" : "mat18", "pbrMetallicRoughness" : {"baseColorFactor" : [1, 0.61, 0.25, 1], "metallicFactor" : 0, "roughnessFactor" : 1}, "emissiveFactor" : [0, 0, 0], "alphaMode" : "OPAQUE", "doubleSided" : false}, {"name" : "mat21", "pbrMetallicRoughness" : {"baseColorFactor" : [1, 1, 1, 1], "metallicFactor" : 0, "roughnessFactor" : 1}, "emissiveFactor" : [0, 0, 0], "alphaMode" : "OPAQUE", "doubleSided" : false}, {"name" : "mat22", "pbrMetallicRoughness" : {"baseColorFactor" : [0.35, 0.35, 0.35, 1], "metallicFactor" : 0, "roughnessFactor" : 1}, "emissiveFactor" : [0, 0, 0], "alphaMode" : "OPAQUE", "doubleSided" : false}, {"name" : "mat12", "pbrMetallicRoughness" : {"baseColorFactor" : [1, 0.83, 0.04, 1], "metallicFactor" : 0, "roughnessFactor" : 1}, "emissiveFactor" : [0, 0, 0], "alphaMode" : "OPAQUE", "doubleSided" : false}], "meshes" : [{"primitives" : [{"attributes" : {"POSITION" : 1, "NORMAL" : 2}, "indices" : 0, "material" : 0, "mode" : 4}, {"attributes" : {"POSITION" : 4, "NORMAL" : 5}, "indices" : 3, "material" : 1, "mode" : 4}, {"attributes" : {"POSITION" : 7, "NORMAL" : 8}, "indices" : 6, "material" : 2, "mode" : 4}, {"attributes" : {"POSITION" : 10, "NORMAL" : 11}, "indices" : 9, "material" : 3, "mode" : 4}, {"attributes" : {"POSITION" : 13, "NORMAL" : 14}, "indices" : 12, "material" : 4, "mode" : 4}, {"attributes" : {"POSITION" : 16, "NORMAL" : 17}, "indices" : 15, "material" : 5, "mode" : 4}, {"attributes" : {"POSITION" : 19, "NORMAL" : 20}, "indices" : 18, "material" : 6, "mode" : 4}, {"attributes" : {"POSITION" : 22, "NORMAL" : 23}, "indices" : 21, "material" : 7, "mode" : 4}, {"attributes" : {"POSITION" : 25, "NORMAL" : 26}, "indices" : 24, "material" : 8, "mode" : 4}, {"attributes" : {"POSITION" : 28, "NORMAL" : 29}, "indices" : 27, "material" : 9, "mode" : 4}, {"attributes" : {"POSITION" : 31, "NORMAL" : 32}, "indices" : 30, "material" : 10, "mode" : 4}, {"attributes" : {"POSITION" : 34, "NORMAL" : 35}, "indices" : 33, "material" : 11, "mode" : 4}, {"attributes" : {"POSITION" : 37, "NORMAL" : 38}, "indices" : 36, "material" : 12, "mode" : 4}, {"attributes" : {"POSITION" : 40, "NORMAL" : 41}, "indices" : 39, "material" : 13, "mode" : 4}]}], "nodes" : [{"mesh" : 0, "name" : "Node"}], "scene" : 0, "scenes" : [{"nodes" : [0]}]}