<?xml version="1.0" standalone="no"?>
<!DOCTYPE svg PUBLIC "-//W3C//DTD SVG 20010904//EN"
 "http://www.w3.org/TR/2001/REC-SVG-20010904/DTD/svg10.dtd">
<svg version="1.0" xmlns="http://www.w3.org/2000/svg"
 width="518.000000pt" height="486.000000pt" viewBox="0 0 518.000000 486.000000"
 preserveAspectRatio="xMidYMid meet">

<g transform="translate(0.000000,486.000000) scale(0.100000,-0.100000)"
fill="#ffffff" stroke="none">
<path d="M0 2430 l0 -2430 2590 0 2590 0 0 2430 0 2430 -2590 0 -2590 0 0
-2430z m2584 2276 c4 -18 24 -53 45 -77 l38 -44 -24 -19 c-28 -21 -53 -73 -53
-111 0 -18 -5 -25 -19 -25 -15 0 -20 10 -26 47 -5 34 -16 56 -39 79 l-33 33
28 27 c15 15 36 49 45 75 10 27 21 49 25 49 4 0 10 -15 13 -34z m-94 -185 c30
-29 48 -76 35 -89 -4 -4 -12 2 -19 12 -35 59 -71 70 -92 27 -12 -24 -13 -24
-19 12 -13 69 43 91 95 38z m248 -13 c3 -38 -11 -52 -22 -23 -12 33 -72 1 -88
-47 -2 -6 -9 -9 -15 -7 -17 6 11 80 38 102 14 11 35 17 53 15 28 -3 31 -7 34
-40z m84 -145 c-12 -13 -24 -23 -25 -23 -1 0 -3 14 -3 32 -1 21 6 38 20 49 20
17 21 17 26 -9 5 -20 0 -33 -18 -49z m-603 58 c9 -6 11 -18 7 -34 -3 -14 -2
-29 4 -32 5 -3 10 -13 10 -20 0 -11 -6 -12 -25 -5 -60 23 -77 -33 -23 -72 62
-44 148 -19 148 43 0 24 2 24 42 -1 45 -27 64 -25 100 10 16 17 31 30 34 30
12 0 1 -29 -18 -48 -33 -30 -72 -37 -108 -19 -16 9 -30 11 -30 6 0 -22 -50
-59 -80 -59 -23 0 -30 -4 -30 -20 0 -20 7 -20 325 -20 282 0 325 -2 325 -15 0
-13 -43 -15 -330 -15 -315 0 -330 1 -330 19 0 39 -192 191 -261 206 -42 9 -26
25 26 25 24 0 47 5 50 10 11 18 25 11 25 -13 0 -13 6 -32 14 -43 12 -15 17
-17 27 -6 10 10 11 19 2 43 -12 30 -11 30 15 25 15 -3 34 -2 42 4 18 12 21 12
39 1z m123 -54 l-4 -34 -24 24 c-17 17 -22 31 -18 48 6 22 8 23 28 10 17 -12
21 -22 18 -48z m623 53 c3 -5 20 -7 38 -3 26 5 30 3 20 -8 -15 -15 -17 -55 -4
-64 15 -8 41 24 41 51 0 25 14 32 26 13 3 -6 18 -9 32 -6 14 3 37 1 51 -5 25
-9 25 -10 -19 -25 -57 -20 -119 -62 -192 -131 -46 -44 -59 -51 -64 -38 -3 9
-17 16 -31 16 -16 0 -38 13 -57 33 -28 30 -34 32 -63 24 -55 -16 -123 17 -123
60 0 13 7 9 29 -15 35 -38 70 -41 119 -12 l32 20 0 -25 c0 -67 93 -89 150 -35
51 48 23 84 -44 55 -17 -7 -17 -6 -5 16 7 13 12 39 10 57 -2 28 0 32 23 32 13
0 28 -4 31 -10z m-307 -27 c-3 -27 -5 -28 -73 -31 -86 -4 -115 3 -115 27 0 28
8 31 102 31 l89 0 -3 -27z m-52 -84 c14 -28 14 -31 1 -26 -10 4 -14 1 -11 -6
2 -7 -2 -21 -10 -32 -12 -16 -16 -17 -30 -6 -9 7 -16 22 -16 33 0 10 -4 17 -9
14 -5 -4 -4 7 2 24 16 42 51 41 73 -1z m-570 -38 c116 -71 152 -279 60 -347
-21 -16 -21 -16 4 -10 197 52 412 73 595 57 111 -10 257 -35 330 -57 17 -6 16
-2 -7 22 -71 76 -41 255 55 325 67 49 173 33 207 -32 20 -36 15 -88 -11 -115
-25 -26 -76 -33 -97 -12 -17 17 -15 55 4 62 22 9 35 -2 32 -26 -4 -29 17 -33
41 -9 29 29 26 65 -7 102 -23 26 -36 32 -69 32 -93 0 -163 -89 -163 -208 0
-73 16 -100 74 -126 55 -25 75 -24 211 12 140 36 170 50 196 92 37 61 9 151
-38 121 -23 -14 -28 -34 -9 -34 9 0 16 -8 16 -20 0 -23 -29 -27 -48 -8 -18 18
-14 49 10 75 29 31 54 29 90 -7 27 -27 30 -36 25 -71 -3 -22 -17 -58 -31 -80
l-26 -39 22 0 c60 -1 142 -62 157 -116 7 -26 12 -29 49 -28 54 1 89 25 103 74
10 33 9 43 -5 65 -21 32 -66 35 -66 5 0 -13 -7 -20 -20 -20 -31 0 -37 30 -11
52 32 25 64 23 100 -8 76 -64 6 -204 -103 -204 -34 0 -33 -11 9 -86 31 -55
133 -180 141 -172 1 2 -4 28 -12 58 -28 108 -9 195 56 254 48 43 112 65 135
46 14 -12 14 -15 2 -28 -11 -10 -20 -11 -34 -4 -28 15 -80 -13 -112 -62 -23
-35 -26 -49 -26 -120 1 -117 33 -192 95 -223 56 -29 141 -31 190 -4 95 51 106
217 18 271 -43 26 -77 25 -119 -3 -26 -17 -35 -31 -37 -57 -3 -30 -2 -32 12
-21 20 17 46 7 46 -18 0 -45 -74 -32 -86 14 -16 63 46 125 126 125 86 0 149
-70 150 -166 0 -46 -42 -139 -71 -155 -23 -12 -25 -29 -4 -29 24 0 96 -39 128
-69 66 -60 87 -168 48 -241 -20 -37 -88 -80 -128 -80 -41 0 -92 28 -113 62
-56 92 18 225 96 173 26 -17 31 -44 12 -63 -29 -29 -73 3 -47 34 9 11 8 14 -5
14 -39 0 -65 -83 -41 -133 31 -67 113 -78 173 -23 36 34 37 36 37 104 0 63 -3
74 -31 109 -48 59 -121 91 -234 101 -72 7 -108 16 -149 36 -74 38 -180 147
-236 245 l-48 81 -29 -25 c-17 -14 -42 -25 -59 -25 -37 0 -85 24 -99 49 -14
27 -13 74 3 95 17 23 60 18 65 -8 5 -23 -16 -38 -41 -30 -16 5 -18 2 -12 -18
16 -56 81 -75 129 -37 20 16 26 29 26 61 0 98 -129 145 -280 103 -30 -9 -92
-24 -137 -33 l-83 -18 38 -13 c20 -8 81 -35 134 -61 411 -203 720 -558 857
-989 22 -69 43 -138 46 -153 l5 -27 184 -3 c168 -3 187 -5 212 -24 41 -30 63
-65 66 -104 3 -34 2 -35 -40 -40 -85 -12 -142 -80 -142 -169 0 -93 59 -156
163 -175 37 -7 38 -8 32 -39 -8 -39 -32 -74 -69 -101 -25 -19 -46 -21 -213
-26 l-185 -5 -23 -90 c-100 -389 -359 -749 -700 -971 -285 -186 -591 -276
-930 -276 -548 1 -1051 261 -1370 707 -113 159 -217 383 -260 563 l-18 72
-176 0 c-152 0 -181 3 -211 19 -43 22 -80 74 -80 112 0 28 3 30 64 44 69 15
125 89 126 164 0 83 -81 171 -158 171 -29 0 -32 3 -32 33 0 42 31 92 72 114
28 15 63 19 214 21 l181 4 23 86 c102 393 352 742 691 968 94 62 256 148 333
175 l39 14 -64 11 c-35 6 -100 21 -143 33 -139 37 -225 25 -279 -38 -34 -41
-35 -84 -2 -116 32 -33 78 -33 110 0 28 28 37 77 9 55 -12 -11 -18 -11 -30 2
-20 20 -7 48 22 48 27 0 54 -34 54 -68 0 -14 -14 -38 -34 -58 -42 -42 -87 -45
-138 -10 l-35 23 -39 -71 c-49 -88 -180 -224 -247 -256 -32 -14 -82 -26 -140
-32 -111 -11 -174 -37 -226 -93 -66 -72 -68 -162 -4 -222 71 -68 183 -28 183
65 0 25 -8 49 -21 66 -26 33 -38 33 -36 -1 2 -22 -3 -29 -20 -31 -49 -7 -47
72 2 84 36 9 76 -22 94 -73 18 -51 9 -87 -33 -129 -62 -62 -150 -54 -209 18
-85 105 -11 278 137 320 23 6 42 12 44 13 1 1 -15 20 -36 41 -79 79 -75 207 9
278 25 21 41 26 84 26 46 0 59 -5 90 -31 28 -25 35 -38 35 -67 0 -57 -49 -94
-79 -58 -20 24 -2 49 30 42 32 -6 35 0 18 38 -12 27 -64 56 -98 56 -64 0 -115
-64 -115 -145 0 -135 125 -204 264 -144 41 17 51 28 68 67 35 81 48 164 33
214 -24 81 -104 154 -138 126 -7 -6 -20 -8 -28 -4 -24 9 -18 35 10 42 38 9
114 -33 149 -84 44 -63 48 -174 9 -278 -6 -18 -5 -18 17 1 47 41 170 221 170
248 0 4 -15 7 -32 7 -98 0 -173 123 -118 193 39 49 135 44 128 -6 -4 -29 -38
-35 -45 -8 -12 47 -73 9 -73 -45 0 -51 44 -95 101 -101 44 -5 46 -4 52 24 3
16 15 40 26 55 24 30 100 68 138 68 l26 0 -20 23 c-51 56 -59 132 -18 172 28
29 51 31 83 9 30 -20 28 -87 -2 -92 -28 -6 -45 16 -23 32 23 18 22 33 -4 41
-26 9 -59 -20 -59 -52 0 -30 21 -72 52 -100 24 -22 201 -78 281 -89 87 -12
164 38 174 113 7 55 -21 145 -58 188 -74 84 -199 57 -199 -44 0 -19 8 -35 22
-45 25 -18 38 -13 31 13 -6 22 24 36 43 20 31 -25 -2 -69 -52 -69 -62 0 -94
78 -58 139 36 60 127 80 190 42z m864 -191 l0 -50 -330 0 -330 0 0 50 0 49
330 1 330 0 0 -50z m-2120 -666 c0 -19 -27 -29 -43 -16 -17 15 -59 -24 -89
-81 -30 -57 -31 -154 -1 -219 25 -55 90 -121 135 -137 62 -23 101 -46 120 -72
28 -38 34 -99 13 -142 -36 -76 -108 -90 -189 -38 -28 17 -58 31 -68 31 -22 0
-33 -23 -23 -47 6 -17 7 -17 20 1 12 15 17 17 29 7 8 -7 12 -19 9 -27 -6 -16
-54 -19 -70 -3 -7 7 -22 4 -51 -11 -58 -30 -129 -31 -154 -1 -10 13 -18 36
-18 52 0 29 30 69 52 69 18 0 48 -31 48 -50 0 -23 -26 -44 -45 -36 -17 6 -21
36 -5 36 6 0 10 5 10 11 0 18 -22 5 -31 -18 -5 -13 -2 -29 8 -43 14 -19 22
-22 60 -16 47 6 103 34 103 50 0 21 35 46 64 46 17 0 48 -11 68 -25 71 -48
123 -43 153 15 32 61 4 139 -60 166 -49 20 -105 -6 -105 -51 0 -30 10 -37 26
-20 8 8 21 12 29 9 22 -9 18 -42 -6 -55 -18 -9 -26 -7 -48 9 -40 30 -41 83 -1
120 19 18 19 19 -26 61 -121 114 -132 301 -23 410 19 18 43 37 54 41 24 9 55
-5 55 -26z m3648 16 c44 -27 89 -100 103 -168 21 -103 -15 -202 -101 -280
l-38 -33 25 -25 c33 -33 29 -89 -7 -116 -42 -31 -90 6 -55 41 15 15 17 14 30
-3 13 -17 15 -17 21 -3 18 48 -34 95 -88 82 -97 -25 -117 -178 -27 -215 29
-12 36 -11 104 24 84 43 104 42 133 -8 36 -62 146 -84 172 -36 12 22 -2 60
-22 60 -7 0 -6 -5 2 -15 15 -18 6 -45 -14 -45 -9 0 -20 9 -26 21 -14 25 10 69
37 69 47 0 72 -82 36 -122 -22 -25 -102 -24 -152 1 -25 13 -42 16 -52 10 -22
-14 -59 -10 -66 7 -8 22 13 42 29 26 18 -18 28 -15 28 8 0 35 -30 36 -91 2
-80 -44 -127 -44 -167 3 -44 49 -50 93 -21 152 24 48 47 65 125 93 46 17 113
85 140 144 32 70 32 141 -2 211 -28 61 -71 102 -88 85 -26 -26 -60 6 -36 35
16 20 29 19 68 -5z m-3846 -1529 c30 -15 40 -16 59 -5 36 19 80 -6 57 -33 -9
-11 -14 -10 -29 3 -17 15 -19 15 -25 0 -9 -23 2 -46 23 -46 10 0 38 14 63 30
58 38 99 46 137 26 45 -23 67 -63 67 -122 0 -72 -33 -114 -112 -143 -68 -24
-130 -78 -164 -143 -17 -33 -22 -60 -22 -113 0 -77 15 -118 66 -172 26 -27 33
-30 49 -20 26 16 49 -6 33 -31 -17 -27 -37 -25 -81 7 -60 43 -97 125 -97 210
1 87 31 156 96 217 l49 46 -26 24 c-21 19 -26 32 -23 61 4 47 44 81 77 64 11
-7 21 -20 21 -30 0 -25 -31 -36 -46 -17 -13 19 -24 10 -24 -20 0 -49 58 -75
112 -50 87 41 91 172 7 206 -30 13 -36 11 -101 -24 -81 -44 -104 -43 -139 11
-40 62 -143 82 -169 33 -12 -22 2 -60 22 -60 7 0 6 5 -2 15 -7 8 -10 22 -6 30
9 23 35 18 48 -10 9 -21 8 -28 -7 -45 -24 -26 -50 -25 -69 2 -32 45 -15 102
34 121 22 9 80 -2 122 -22z m4092 9 c35 -13 58 -52 50 -85 -16 -65 -98 -67
-92 -2 2 21 9 33 21 35 21 4 35 -27 16 -38 -7 -5 -10 -13 -5 -17 9 -9 36 24
36 43 0 7 -7 20 -16 28 -36 37 -150 1 -171 -54 -9 -25 -17 -30 -45 -30 -18 0
-55 13 -83 30 -27 16 -61 30 -75 30 -88 0 -119 -140 -43 -200 31 -24 95 -27
117 -4 18 17 22 74 6 74 -5 0 -10 -5 -10 -11 0 -14 -42 -7 -47 7 -5 15 24 44
43 44 8 0 23 -9 34 -20 29 -29 27 -86 -4 -113 l-24 -21 42 -37 c23 -20 55 -61
71 -90 26 -47 29 -65 30 -134 0 -70 -4 -86 -30 -134 -28 -51 -69 -91 -107
-104 -19 -7 -51 19 -45 37 5 16 38 20 48 5 13 -21 75 52 94 112 24 70 16 154
-20 214 -30 52 -117 125 -147 125 -11 0 -35 9 -52 19 -92 58 -92 202 2 247 41
19 74 13 132 -26 25 -17 53 -30 63 -30 21 0 32 23 23 47 -6 15 -8 14 -20 -2
-14 -19 -36 -13 -36 10 0 24 34 35 62 21 18 -10 30 -11 44 -3 24 14 86 36 101
37 6 0 23 -4 37 -10z m-3727 -381 c69 -26 103 -96 81 -164 -25 -74 -103 -98
-130 -40 -14 30 5 57 36 53 16 -2 21 -10 19 -31 -2 -34 10 -34 36 -1 73 92
-44 207 -146 144 -113 -69 -67 -243 80 -305 19 -8 77 -18 129 -24 112 -11 167
-35 246 -106 56 -50 126 -142 161 -212 l21 -42 38 25 c45 31 101 28 137 -6 50
-47 36 -130 -21 -130 -30 0 -42 26 -21 47 13 13 19 14 31 3 28 -22 19 27 -9
55 -52 53 -135 15 -135 -61 0 -29 7 -44 35 -69 58 -55 142 -61 292 -19 159 44
241 35 303 -31 22 -24 25 -36 26 -108 1 -77 3 -82 32 -108 43 -38 92 -46 134
-22 28 16 33 25 33 59 0 38 -1 39 -33 36 -30 -3 -33 -1 -30 20 5 35 50 37 77
2 30 -39 28 -89 -7 -123 -15 -15 -34 -30 -42 -33 -22 -7 -17 -94 8 -127 10
-14 35 -32 55 -40 32 -12 40 -12 62 3 27 18 34 56 11 56 -16 0 -25 19 -18 38
5 15 34 16 50 0 15 -15 15 -53 1 -81 -30 -59 -93 -73 -150 -34 -41 27 -58 60
-66 126 -5 45 -8 50 -36 55 -17 3 -46 18 -65 33 -34 25 -36 26 -46 8 -6 -10
-23 -33 -38 -50 -80 -94 -230 -61 -245 53 -5 36 -2 45 25 72 36 35 50 37 86 9
30 -24 33 -44 8 -58 -26 -14 -46 2 -37 29 10 31 -21 24 -47 -11 -18 -24 -18
-29 -5 -62 9 -19 24 -40 35 -46 34 -18 96 -13 133 12 68 45 108 179 74 250
-19 42 -82 77 -135 77 -50 0 -261 -59 -297 -83 -34 -23 -63 -74 -63 -111 0
-31 33 -60 59 -51 26 8 27 23 4 41 -22 16 -5 38 23 32 23 -4 31 -55 12 -80
-42 -55 -118 -14 -118 62 0 45 11 72 43 108 l20 22 -24 0 c-13 0 -48 11 -76
25 -56 25 -93 71 -93 114 0 27 -48 126 -90 185 -44 61 -113 134 -105 111 47
-144 24 -268 -61 -328 -51 -35 -111 -47 -120 -22 -9 22 14 37 38 24 20 -11 62
7 89 37 50 57 66 135 44 219 -25 93 -46 127 -95 153 -85 43 -191 22 -237 -46
-84 -126 23 -291 146 -227 34 17 60 70 42 88 -8 8 -11 8 -11 -2 0 -7 -9 -11
-22 -9 -27 4 -31 36 -7 51 28 18 69 -16 69 -57 0 -74 -84 -127 -165 -105 -120
33 -150 220 -50 308 31 27 33 32 18 37 -128 40 -203 122 -203 223 0 117 99
197 197 160z m3362 -26 c38 -29 71 -92 71 -137 0 -87 -78 -182 -175 -212 l-50
-16 36 -37 c61 -61 76 -156 36 -231 -50 -95 -171 -107 -236 -24 -25 32 -27 61
-5 92 21 31 68 27 72 -6 4 -27 -22 -40 -43 -22 -28 23 -18 -38 10 -64 55 -51
140 -35 177 34 25 46 21 138 -9 178 -52 70 -159 88 -243 41 -38 -21 -49 -34
-69 -84 -47 -120 -37 -227 29 -290 24 -23 40 -29 78 -30 35 0 47 -4 47 -15 0
-10 -12 -16 -39 -18 -51 -4 -106 32 -143 95 -24 42 -28 58 -27 123 1 45 7 90
17 113 9 20 12 37 7 37 -16 0 -129 -149 -159 -209 -16 -31 -32 -72 -36 -91 -4
-19 -14 -47 -21 -62 -18 -35 -91 -78 -132 -78 -38 0 -39 -4 -7 -41 69 -83 17
-210 -70 -171 -29 14 -41 52 -25 82 14 26 45 23 45 -5 0 -11 -6 -19 -12 -18
-20 4 -15 -25 5 -36 50 -27 82 57 46 119 -23 39 -55 55 -179 90 -126 35 -190
38 -243 11 -45 -23 -62 -55 -62 -119 0 -71 17 -118 58 -161 62 -65 154 -65
187 0 19 36 19 58 -2 81 -25 28 -51 24 -45 -8 4 -22 2 -25 -19 -22 -30 4 -36
33 -13 59 33 37 87 18 110 -38 14 -31 13 -38 -3 -71 -27 -53 -65 -77 -123 -76
-56 1 -109 34 -142 90 l-19 33 -41 -29 c-23 -17 -54 -30 -70 -30 -27 0 -28 -2
-28 -45 0 -110 -83 -185 -166 -150 -36 15 -54 41 -54 79 0 40 11 56 37 56 20
0 24 -4 21 -23 -2 -14 -9 -21 -21 -21 -14 2 -16 -3 -11 -20 11 -36 25 -46 66
-46 32 0 46 6 69 31 25 26 29 39 29 85 0 49 -2 55 -30 69 -59 30 -68 98 -20
146 25 26 33 28 50 19 30 -16 21 -45 -14 -45 -56 0 -53 -71 5 -100 41 -22 90
-13 132 25 32 28 33 31 29 93 -5 84 15 130 72 160 56 29 147 28 246 -2 151
-47 274 -36 320 29 61 86 -41 189 -115 115 -28 -28 -37 -77 -9 -55 12 11 18
11 30 -2 20 -20 7 -48 -22 -48 -27 0 -54 34 -54 68 0 14 14 38 34 58 42 42 87
45 138 10 l35 -23 39 71 c49 88 180 224 247 256 31 14 81 26 135 31 104 11
145 23 193 58 97 69 117 192 43 262 -35 33 -123 34 -155 3 -32 -33 -37 -102
-9 -136 27 -35 39 -35 37 -1 -2 22 3 29 20 31 29 4 48 -30 33 -58 -22 -41 -84
-34 -114 13 -41 63 -22 141 44 185 42 28 106 26 149 -5z"/>
<path d="M2425 3929 c-287 -23 -606 -144 -835 -317 -130 -98 -295 -268 -376
-387 -109 -160 -221 -411 -248 -557 l-7 -37 238 -3 c131 -2 268 -2 304 0 l65
3 38 84 c101 225 266 400 481 512 153 79 302 114 485 115 267 0 495 -86 701
-264 105 -89 212 -239 269 -374 15 -35 29 -67 32 -69 6 -6 599 -7 605 -2 1 2
-8 44 -21 93 -148 550 -596 999 -1149 1148 -189 52 -393 71 -582 55z"/>
<path d="M2415 3296 c-291 -48 -537 -207 -695 -447 -51 -78 -120 -220 -120
-248 0 -8 -154 -11 -509 -11 -336 0 -518 -4 -539 -11 -29 -10 -62 -46 -62 -68
0 -6 18 -15 41 -21 77 -21 149 -119 149 -201 0 -82 -62 -168 -141 -196 -52
-19 -55 -23 -39 -54 26 -48 34 -49 583 -49 l514 0 12 -42 c23 -77 100 -213
169 -299 130 -162 329 -290 537 -346 88 -23 119 -26 255 -26 136 0 167 3 254
26 311 83 574 314 688 603 l33 83 523 3 524 3 29 33 c16 18 29 36 29 41 0 4
-19 13 -42 20 -92 27 -148 102 -148 198 0 95 50 167 139 200 43 16 47 20 40
40 -5 13 -23 32 -41 43 -32 19 -50 20 -544 20 l-511 0 -27 74 c-71 193 -236
387 -428 501 -195 116 -457 167 -673 131z m370 -146 c101 -25 261 -105 342
-170 139 -112 260 -303 305 -480 27 -108 29 -301 4 -404 -76 -316 -301 -558
-611 -657 -140 -44 -330 -48 -479 -9 -307 81 -553 325 -637 636 -29 105 -32
326 -5 424 31 118 68 202 127 290 142 213 358 347 624 391 75 12 239 2 330
-21z"/>
<path d="M2411 3125 c-283 -64 -490 -225 -607 -470 -57 -122 -74 -189 -81
-326 -11 -228 56 -423 207 -599 147 -170 358 -273 587 -287 613 -36 1059 563
849 1142 -90 249 -310 449 -578 525 -97 28 -288 36 -377 15z m-320 -305 l70 0
-20 -29 c-12 -16 -21 -31 -21 -33 0 -3 31 -26 70 -52 38 -27 68 -51 66 -55 -1
-3 -6 -15 -10 -26 -7 -19 -9 -18 -32 10 l-24 30 0 -396 c0 -320 3 -399 14
-414 9 -12 31 -21 62 -24 36 -4 50 -11 52 -23 3 -17 -9 -18 -152 -18 -86 0
-159 -1 -163 -2 -5 -2 -9 7 -11 20 -3 20 1 22 40 22 88 0 83 -30 86 468 l3
440 -22 21 c-16 15 -36 21 -66 21 -40 0 -43 2 -43 26 0 20 4 25 16 20 9 -3 47
-6 85 -6z m1057 -19 c3 -19 -2 -21 -40 -21 -24 0 -53 -6 -64 -14 -18 -14 -19
-33 -22 -511 -3 -552 4 -498 -62 -479 l-20 5 20 26 c25 32 26 85 3 105 -10 9
-40 18 -66 21 -41 4 -57 12 -94 48 -62 61 -69 76 -33 71 21 -3 32 1 41 16 11
18 16 14 73 -52 l61 -71 3 110 c1 61 1 242 0 403 -3 277 -4 294 -22 308 -11 8
-37 14 -57 14 -39 0 -54 11 -46 33 3 9 47 11 163 10 152 -2 159 -3 162 -22z
m-849 -45 c28 -35 51 -66 51 -69 0 -4 -156 108 -179 129 -2 2 14 4 36 4 39 0
45 -4 92 -64z m-46 -40 c40 -30 96 -79 126 -109 l53 -55 57 21 c99 36 253 25
213 -15 -8 -8 -52 -12 -134 -12 -111 1 -117 0 -76 -11 50 -12 98 -40 98 -55 0
-19 -27 -10 -39 13 -7 13 -10 15 -6 4 4 -17 -1 -16 -41 7 -45 25 -46 25 -30 3
23 -32 80 -144 100 -197 14 -38 27 -51 77 -80 73 -42 139 -104 139 -130 0 -37
-33 -21 -103 50 -39 38 -72 69 -73 67 -2 -2 18 -41 44 -88 26 -46 48 -93 49
-104 0 -11 2 -41 4 -67 4 -53 -4 -67 -29 -52 -22 15 -30 46 -31 129 -1 58 -7
84 -38 153 l-36 83 -13 -37 c-7 -20 -20 -44 -28 -52 -26 -27 -31 12 -11 97
l17 77 -27 55 c-25 49 -115 172 -122 165 -2 -1 7 -29 18 -61 14 -39 21 -87 22
-146 3 -146 -18 -117 -72 96 l-28 110 -14 -45 c-8 -25 -18 -45 -23 -45 -20 0
-29 69 -17 129 7 32 11 59 9 61 -2 1 -32 23 -67 49 -35 25 -58 46 -51 46 6 0
44 -24 83 -54z m250 -396 c-10 -50 -30 -16 -35 59 l-4 63 23 -45 c16 -33 21
-55 16 -77z m123 18 c85 -107 85 -106 35 -77 -35 21 -48 37 -67 82 -12 32 -21
57 -20 57 2 0 25 -28 52 -62z m211 -424 c18 -8 45 -14 61 -14 58 0 68 -61 16
-94 -28 -19 -54 -8 -54 23 0 9 -34 54 -75 101 -41 46 -75 89 -75 95 0 5 22
-14 47 -44 26 -30 62 -60 80 -67z"/>
<path d="M2292 2570 l0 -65 13 35 c7 19 14 49 14 65 0 25 -2 27 -8 10 l-8 -20
-5 20 c-3 11 -6 -9 -6 -45z"/>
<path d="M2354 2565 c3 -37 53 -235 61 -243 2 -2 4 24 4 58 0 64 -28 171 -53
205 -14 19 -15 17 -12 -20z"/>
<path d="M2545 2570 c3 -5 36 -9 73 -9 66 1 66 2 22 10 -64 11 -102 11 -95 -1z"/>
<path d="M2550 2271 c0 -7 -4 -9 -10 -6 -5 3 -10 -3 -10 -14 0 -31 17 -34 24
-5 4 15 5 29 1 32 -3 3 -5 0 -5 -7z"/>
<path d="M2703 2154 c47 -50 86 -69 67 -34 -10 19 -80 75 -80 64 0 -3 -8 -1
-17 7 -10 7 4 -10 30 -37z m27 -9 c19 -19 32 -35 29 -35 -3 0 -20 16 -39 35
-19 19 -32 35 -29 35 3 0 20 -16 39 -35z"/>
<path d="M2663 2044 c-9 -23 10 -117 25 -122 13 -4 17 45 5 86 -4 18 -8 21
-15 10 -7 -9 -8 -4 -4 15 7 29 -1 37 -11 11z"/>
<path d="M2843 1883 c9 -9 19 -14 23 -11 10 10 -6 28 -24 28 -15 0 -15 -1 1
-17z"/>
<path d="M2893 1875 c11 -7 25 -11 33 -8 22 8 6 23 -24 23 -25 -1 -26 -2 -9
-15z"/>
<path d="M2870 1843 c0 -12 5 -25 11 -28 19 -12 22 3 5 27 l-16 22 0 -21z"/>
<path d="M2900 1839 c10 -17 14 -18 27 -8 13 12 13 14 -4 20 -30 12 -34 10
-23 -12z"/>
<path d="M965 1913 c4 -21 23 -85 42 -143 197 -590 698 -1010 1328 -1111 113
-18 378 -16 495 4 353 60 645 212 901 467 209 209 359 463 424 720 9 36 18 73
21 83 5 16 -12 17 -301 15 l-306 -3 -32 -75 c-138 -317 -418 -544 -758 -616
-112 -23 -305 -23 -419 0 -338 70 -612 291 -755 609 l-39 87 -304 0 -304 0 7
-37z"/>
</g>
</svg>
